# xmcd CD database file
#
# Track frame offsets:
#	150
#	58019
#	86353
#	118498
#	140522
#	222082
#
# Disc length: 3959 seconds
#
# Revision: 3
# Processed by: cddbd v1.5.2PL0 Copyright (c) Steve Scherf et al.
# Submitted via: CDex 1.70beta2
#
DISCID=560f7506
DTITLE=Wilfried van Craen - Relaxatie en Zelfhypnose in de praktijk
DYEAR=1999
DGENRE=New Age
TTITLE0=Progressieve Relaxatie - 1ste fase
TTITLE1=Progressieve Relaxatie - 2de fase
TTITLE2=Progressieve Relaxatie - 3de fase
TTITLE3=Progressieve Relaxatie - 4de fase
TTITLE4=Oogfixatie
TTITLE5=Armlevitatie
EXTD=YEAR: 1999
EXTT0=
EXTT1=
EXTT2=
EXTT3=
EXTT4=
EXTT5=
PLAYORDER=
